<mxfile host="app.diagrams.net" agent="Mozilla/5.0 (Windows NT 10.0; Win64; x64) AppleWebKit/537.36 (KHTML, like Gecko) Chrome/133.0.0.0 Safari/537.36" version="26.1.0">
  <diagram name="Page-1" id="GaQT2Zu7wdng-g6KhEvj">
    <mxGraphModel dx="1232" dy="1071" grid="1" gridSize="10" guides="1" tooltips="1" connect="1" arrows="1" fold="1" page="1" pageScale="1" pageWidth="1100" pageHeight="850" math="0" shadow="0">
      <root>
        <mxCell id="0" />
        <mxCell id="1" parent="0" />
        <mxCell id="9Lq85E9aJHJtUCuMizLp-1" value="Factory" style="html=1;dropTarget=0;whiteSpace=wrap;" vertex="1" parent="1">
          <mxGeometry x="840" y="60" width="130" height="60" as="geometry" />
        </mxCell>
        <mxCell id="9Lq85E9aJHJtUCuMizLp-2" value="" style="shape=module;jettyWidth=8;jettyHeight=4;" vertex="1" parent="9Lq85E9aJHJtUCuMizLp-1">
          <mxGeometry x="1" width="20" height="20" relative="1" as="geometry">
            <mxPoint x="-27" y="7" as="offset" />
          </mxGeometry>
        </mxCell>
        <mxCell id="9Lq85E9aJHJtUCuMizLp-3" value="Main" style="html=1;dropTarget=0;whiteSpace=wrap;" vertex="1" parent="1">
          <mxGeometry x="842.5" y="140" width="125" height="60" as="geometry" />
        </mxCell>
        <mxCell id="9Lq85E9aJHJtUCuMizLp-4" value="" style="shape=module;jettyWidth=8;jettyHeight=4;" vertex="1" parent="9Lq85E9aJHJtUCuMizLp-3">
          <mxGeometry x="1" width="20" height="20" relative="1" as="geometry">
            <mxPoint x="-27" y="7" as="offset" />
          </mxGeometry>
        </mxCell>
        <mxCell id="9Lq85E9aJHJtUCuMizLp-5" value="" style="rounded=0;whiteSpace=wrap;html=1;fillColor=none;" vertex="1" parent="1">
          <mxGeometry x="690" y="20" width="380" height="260" as="geometry" />
        </mxCell>
        <mxCell id="9Lq85E9aJHJtUCuMizLp-9" value="" style="endArrow=classic;html=1;rounded=0;exitX=0.5;exitY=1;exitDx=0;exitDy=0;entryX=0.5;entryY=0;entryDx=0;entryDy=0;" edge="1" parent="1" source="9Lq85E9aJHJtUCuMizLp-1" target="9Lq85E9aJHJtUCuMizLp-3">
          <mxGeometry width="50" height="50" relative="1" as="geometry">
            <mxPoint x="865" y="200" as="sourcePoint" />
            <mxPoint x="860" y="250" as="targetPoint" />
          </mxGeometry>
        </mxCell>
        <mxCell id="9Lq85E9aJHJtUCuMizLp-11" value="Shared" style="html=1;whiteSpace=wrap;" vertex="1" parent="1">
          <mxGeometry x="760" y="220" width="260" height="30" as="geometry" />
        </mxCell>
        <mxCell id="9Lq85E9aJHJtUCuMizLp-12" value="&lt;p style=&quot;margin:0px;margin-top:6px;text-align:center;&quot;&gt;&lt;/p&gt;&lt;p style=&quot;margin:0px;margin-left:8px;&quot;&gt;&lt;b&gt;&lt;span style=&quot;white-space: pre;&quot;&gt;&#x9;&lt;/span&gt;&lt;span style=&quot;white-space: pre;&quot;&gt;&#x9;&lt;/span&gt;Factory&lt;/b&gt;&lt;/p&gt;&lt;p style=&quot;margin:0px;margin-left:8px;&quot;&gt;&lt;br&gt;&lt;/p&gt;&lt;p style=&quot;margin:0px;margin-left:8px;&quot;&gt;+ loadFile: FilterInterface&lt;br&gt;+ converTextToBinary: FilterInterface&lt;br&gt;&lt;/p&gt;&lt;p style=&quot;margin:0px;margin-left:8px;&quot;&gt;+ convertBinaryToText: FilterInterface&lt;br&gt;&lt;/p&gt;&lt;p style=&quot;margin:0px;margin-left:8px;&quot;&gt;+ convertBinaryToBase64(): FilterInterface&lt;br&gt;&lt;/p&gt;&lt;p style=&quot;margin:0px;margin-left:8px;&quot;&gt;+ convertBase64ToBinary(): FilterInterface&lt;br&gt;&lt;/p&gt;&lt;p style=&quot;margin:0px;margin-left:8px;&quot;&gt;+ convertTextToSHA(): FilterInterface&lt;br&gt;&lt;/p&gt;&lt;p style=&quot;margin:0px;margin-left:8px;&quot;&gt;+ searchHelloWord(): FilterInterface&lt;br&gt;&lt;/p&gt;&lt;p style=&quot;margin:0px;margin-left:8px;&quot;&gt;+ &amp;nbsp;listWordsWithFrequency(): FilterInterface&lt;br&gt;&lt;/p&gt;" style="align=left;overflow=fill;html=1;dropTarget=0;whiteSpace=wrap;" vertex="1" parent="1">
          <mxGeometry x="290" y="310" width="280" height="190" as="geometry" />
        </mxCell>
        <mxCell id="9Lq85E9aJHJtUCuMizLp-13" value="" style="shape=component;jettyWidth=8;jettyHeight=4;" vertex="1" parent="9Lq85E9aJHJtUCuMizLp-12">
          <mxGeometry x="1" width="20" height="20" relative="1" as="geometry">
            <mxPoint x="-24" y="4" as="offset" />
          </mxGeometry>
        </mxCell>
        <mxCell id="9Lq85E9aJHJtUCuMizLp-31" style="edgeStyle=orthogonalEdgeStyle;rounded=0;orthogonalLoop=1;jettySize=auto;html=1;" edge="1" parent="1" source="9Lq85E9aJHJtUCuMizLp-14" target="9Lq85E9aJHJtUCuMizLp-12">
          <mxGeometry relative="1" as="geometry">
            <Array as="points">
              <mxPoint x="150" y="415" />
            </Array>
          </mxGeometry>
        </mxCell>
        <mxCell id="9Lq85E9aJHJtUCuMizLp-14" value="ID1" style="html=1;dropTarget=0;whiteSpace=wrap;" vertex="1" parent="1">
          <mxGeometry x="60" y="570" width="180" height="90" as="geometry" />
        </mxCell>
        <mxCell id="9Lq85E9aJHJtUCuMizLp-15" value="" style="shape=module;jettyWidth=8;jettyHeight=4;" vertex="1" parent="9Lq85E9aJHJtUCuMizLp-14">
          <mxGeometry x="1" width="20" height="20" relative="1" as="geometry">
            <mxPoint x="-27" y="7" as="offset" />
          </mxGeometry>
        </mxCell>
        <mxCell id="9Lq85E9aJHJtUCuMizLp-32" value="" style="edgeStyle=orthogonalEdgeStyle;rounded=0;orthogonalLoop=1;jettySize=auto;html=1;" edge="1" parent="1" source="9Lq85E9aJHJtUCuMizLp-17" target="9Lq85E9aJHJtUCuMizLp-12">
          <mxGeometry relative="1" as="geometry" />
        </mxCell>
        <mxCell id="9Lq85E9aJHJtUCuMizLp-17" value="ID2" style="html=1;dropTarget=0;whiteSpace=wrap;" vertex="1" parent="1">
          <mxGeometry x="270" y="570" width="180" height="90" as="geometry" />
        </mxCell>
        <mxCell id="9Lq85E9aJHJtUCuMizLp-18" value="" style="shape=module;jettyWidth=8;jettyHeight=4;" vertex="1" parent="9Lq85E9aJHJtUCuMizLp-17">
          <mxGeometry x="1" width="20" height="20" relative="1" as="geometry">
            <mxPoint x="-27" y="7" as="offset" />
          </mxGeometry>
        </mxCell>
        <mxCell id="9Lq85E9aJHJtUCuMizLp-33" value="" style="edgeStyle=orthogonalEdgeStyle;rounded=0;orthogonalLoop=1;jettySize=auto;html=1;" edge="1" parent="1" source="9Lq85E9aJHJtUCuMizLp-19" target="9Lq85E9aJHJtUCuMizLp-12">
          <mxGeometry relative="1" as="geometry" />
        </mxCell>
        <mxCell id="9Lq85E9aJHJtUCuMizLp-19" value="ID3" style="html=1;dropTarget=0;whiteSpace=wrap;" vertex="1" parent="1">
          <mxGeometry x="480" y="570" width="180" height="90" as="geometry" />
        </mxCell>
        <mxCell id="9Lq85E9aJHJtUCuMizLp-20" value="" style="shape=module;jettyWidth=8;jettyHeight=4;" vertex="1" parent="9Lq85E9aJHJtUCuMizLp-19">
          <mxGeometry x="1" width="20" height="20" relative="1" as="geometry">
            <mxPoint x="-27" y="7" as="offset" />
          </mxGeometry>
        </mxCell>
        <mxCell id="9Lq85E9aJHJtUCuMizLp-35" style="edgeStyle=orthogonalEdgeStyle;rounded=0;orthogonalLoop=1;jettySize=auto;html=1;" edge="1" parent="1" source="9Lq85E9aJHJtUCuMizLp-21" target="9Lq85E9aJHJtUCuMizLp-12">
          <mxGeometry relative="1" as="geometry">
            <Array as="points">
              <mxPoint x="250" y="735" />
              <mxPoint x="250" y="415" />
            </Array>
          </mxGeometry>
        </mxCell>
        <mxCell id="9Lq85E9aJHJtUCuMizLp-21" value="ID5" style="html=1;dropTarget=0;whiteSpace=wrap;" vertex="1" parent="1">
          <mxGeometry x="60" y="690" width="180" height="90" as="geometry" />
        </mxCell>
        <mxCell id="9Lq85E9aJHJtUCuMizLp-22" value="" style="shape=module;jettyWidth=8;jettyHeight=4;" vertex="1" parent="9Lq85E9aJHJtUCuMizLp-21">
          <mxGeometry x="1" width="20" height="20" relative="1" as="geometry">
            <mxPoint x="-27" y="7" as="offset" />
          </mxGeometry>
        </mxCell>
        <mxCell id="9Lq85E9aJHJtUCuMizLp-36" style="edgeStyle=orthogonalEdgeStyle;rounded=0;orthogonalLoop=1;jettySize=auto;html=1;" edge="1" parent="1" source="9Lq85E9aJHJtUCuMizLp-23" target="9Lq85E9aJHJtUCuMizLp-12">
          <mxGeometry relative="1" as="geometry">
            <Array as="points">
              <mxPoint x="260" y="735" />
              <mxPoint x="260" y="415" />
            </Array>
          </mxGeometry>
        </mxCell>
        <mxCell id="9Lq85E9aJHJtUCuMizLp-23" value="ID6" style="html=1;dropTarget=0;whiteSpace=wrap;" vertex="1" parent="1">
          <mxGeometry x="270" y="690" width="180" height="90" as="geometry" />
        </mxCell>
        <mxCell id="9Lq85E9aJHJtUCuMizLp-24" value="" style="shape=module;jettyWidth=8;jettyHeight=4;" vertex="1" parent="9Lq85E9aJHJtUCuMizLp-23">
          <mxGeometry x="1" width="20" height="20" relative="1" as="geometry">
            <mxPoint x="-27" y="7" as="offset" />
          </mxGeometry>
        </mxCell>
        <mxCell id="9Lq85E9aJHJtUCuMizLp-25" value="ID7" style="html=1;dropTarget=0;whiteSpace=wrap;" vertex="1" parent="1">
          <mxGeometry x="480" y="690" width="180" height="90" as="geometry" />
        </mxCell>
        <mxCell id="9Lq85E9aJHJtUCuMizLp-26" value="" style="shape=module;jettyWidth=8;jettyHeight=4;" vertex="1" parent="9Lq85E9aJHJtUCuMizLp-25">
          <mxGeometry x="1" width="20" height="20" relative="1" as="geometry">
            <mxPoint x="-27" y="7" as="offset" />
          </mxGeometry>
        </mxCell>
        <mxCell id="9Lq85E9aJHJtUCuMizLp-34" style="edgeStyle=orthogonalEdgeStyle;rounded=0;orthogonalLoop=1;jettySize=auto;html=1;" edge="1" parent="1" source="9Lq85E9aJHJtUCuMizLp-27" target="9Lq85E9aJHJtUCuMizLp-12">
          <mxGeometry relative="1" as="geometry">
            <Array as="points">
              <mxPoint x="710" y="415" />
            </Array>
          </mxGeometry>
        </mxCell>
        <mxCell id="9Lq85E9aJHJtUCuMizLp-27" value="ID4" style="html=1;dropTarget=0;whiteSpace=wrap;" vertex="1" parent="1">
          <mxGeometry x="700" y="570" width="180" height="90" as="geometry" />
        </mxCell>
        <mxCell id="9Lq85E9aJHJtUCuMizLp-28" value="" style="shape=module;jettyWidth=8;jettyHeight=4;" vertex="1" parent="9Lq85E9aJHJtUCuMizLp-27">
          <mxGeometry x="1" width="20" height="20" relative="1" as="geometry">
            <mxPoint x="-27" y="7" as="offset" />
          </mxGeometry>
        </mxCell>
        <mxCell id="9Lq85E9aJHJtUCuMizLp-38" style="edgeStyle=orthogonalEdgeStyle;rounded=0;orthogonalLoop=1;jettySize=auto;html=1;" edge="1" parent="1" source="9Lq85E9aJHJtUCuMizLp-29" target="9Lq85E9aJHJtUCuMizLp-12">
          <mxGeometry relative="1" as="geometry">
            <Array as="points">
              <mxPoint x="910" y="735" />
              <mxPoint x="910" y="415" />
            </Array>
          </mxGeometry>
        </mxCell>
        <mxCell id="9Lq85E9aJHJtUCuMizLp-29" value="ID8" style="html=1;dropTarget=0;whiteSpace=wrap;" vertex="1" parent="1">
          <mxGeometry x="700" y="690" width="180" height="90" as="geometry" />
        </mxCell>
        <mxCell id="9Lq85E9aJHJtUCuMizLp-30" value="" style="shape=module;jettyWidth=8;jettyHeight=4;" vertex="1" parent="9Lq85E9aJHJtUCuMizLp-29">
          <mxGeometry x="1" width="20" height="20" relative="1" as="geometry">
            <mxPoint x="-27" y="7" as="offset" />
          </mxGeometry>
        </mxCell>
        <mxCell id="9Lq85E9aJHJtUCuMizLp-37" style="edgeStyle=orthogonalEdgeStyle;rounded=0;orthogonalLoop=1;jettySize=auto;html=1;entryX=0.993;entryY=0.605;entryDx=0;entryDy=0;entryPerimeter=0;" edge="1" parent="1" source="9Lq85E9aJHJtUCuMizLp-25" target="9Lq85E9aJHJtUCuMizLp-12">
          <mxGeometry relative="1" as="geometry">
            <Array as="points">
              <mxPoint x="680" y="735" />
              <mxPoint x="680" y="435" />
            </Array>
          </mxGeometry>
        </mxCell>
      </root>
    </mxGraphModel>
  </diagram>
</mxfile>
